<?xml version="1.0" encoding="utf-8"?>
<!-- Generator: Adobe Illustrator 16.0.0, SVG Export Plug-In . SVG Version: 6.00 Build 0)  -->
<!DOCTYPE svg PUBLIC "-//W3C//DTD SVG 1.1//EN" "http://www.w3.org/Graphics/SVG/1.1/DTD/svg11.dtd">
<svg version="1.1" id="Layer_1" xmlns="http://www.w3.org/2000/svg" xmlns:xlink="http://www.w3.org/1999/xlink" x="0px" y="0px"
	 width="1126.375px" height="448.351px" viewBox="0 0 1126.375 448.351" enable-background="new 0 0 1126.375 448.351"
	 xml:space="preserve">
<g>
	<path fill="#FFFFFF" d="M132.642,229.604h6.351v-1.772c0-32.357-11.509-44.327-37.309-44.327c-9.129,0-26.988,2.659-26.988,15.071
		v11.968H27.862v-23.937c0-42.11,53.184-46.542,74.22-46.542c67.472,0,87.317,39.45,87.317,89.983v84.219
		c0,6.208,3.175,9.753,8.732,9.753h15.875v47.429h-45.247c-18.654,0-25.798-11.523-25.798-24.822c0-5.764,0.397-9.752,0.397-9.752
		h-0.793c0,0-15.48,39.894-61.123,39.894c-36.118,0-69.06-25.265-69.06-70.479C12.382,235.369,99.7,229.604,132.642,229.604z
		 M93.747,332.884c26.989,0,46.04-31.914,46.04-59.396v-5.318h-8.731c-26.196,0-67.87,3.988-67.87,35.461
		C63.185,318.703,73.108,332.884,93.747,332.884z"/>
</g>
<path fill="#FFFFFF" d="M332.164,371.451h-50.009V281.91c0-13.299-1.588-25.709-4.366-36.791
	c-9.128-33.688-33.736-47.43-55.169-47.43c-7.144,0-12.303,0.887-12.303,0.887v-55.409c0,0,4.762-0.886,9.128-0.886
	c30.958,0,55.168,25.709,64.296,58.067h0.794c0,0-0.794-5.762-0.794-14.185v-13.298c0-19.06,9.128-27.482,26.989-27.482h46.039
	v47.872h-15.875c-5.557,0-8.731,3.104-8.731,9.752L332.164,371.451L332.164,371.451z"/>
<path fill="#FFFFFF" d="M408.167,203.008c0-6.648-3.175-9.752-8.732-9.752H383.56v-47.872h46.04c17.861,0,26.99,8.422,26.99,27.482
	v13.298c0,8.423-0.794,14.185-0.794,14.185h0.794c9.128-32.358,33.338-58.067,64.296-58.067c4.367,0,9.129,0.886,9.129,0.886v55.409
	c0,0-5.159-0.887-12.303-0.887c-21.433,0-46.041,13.741-55.169,47.429c-2.778,11.082-4.365,23.493-4.365,36.793v89.539h-50.01
	L408.167,203.008L408.167,203.008z"/>
<path fill="#FFFFFF" d="M774.896,201.236c-2.195-6.648-5.707-7.979-12.291-7.979h-6.145v-47.872h38.186
	c18.436,0,27.215,5.762,31.604,23.05l32.92,125.443c3.07,11.969,4.391,23.938,4.391,23.938h0.877c0,0,1.754-11.968,5.266-23.938
	l41.264-147.607h49.158l41.697,147.607c3.512,11.969,4.826,23.938,4.826,23.938h0.881c0,0,1.314-11.968,4.391-23.938l32.479-125.443
	c4.389-17.288,13.168-23.05,31.604-23.05h38.186v47.872h-6.143c-6.586,0-9.658,1.331-12.291,7.979l-53.551,170.215h-62.764
	L941.25,242.46c-3.51-11.969-5.266-24.379-5.266-24.379h-0.877c0,0-2.195,12.411-5.707,24.379l-37.746,128.99h-63.207
	L774.896,201.236z"/>
<g>
	<path fill="#FFFFFF" d="M742.927,18.378h12.25v83.67h40.098v10.163h-52.348V18.378z"/>
	<path fill="#FFFFFF" d="M891.892,64.32c0,32.16-19.629,49.423-43.574,49.423c-24.922,0-42.182-19.352-42.182-47.752
		c0-29.792,18.375-49.283,43.434-49.283C875.328,16.708,891.892,36.337,891.892,64.32z M818.943,65.713
		c0,20.187,10.859,38.145,30.07,38.145c19.213,0,30.072-17.68,30.072-38.981c0-18.793-9.746-38.285-29.932-38.285
		C828.966,26.592,818.943,45.247,818.943,65.713z"/>
	<path fill="#FFFFFF" d="M915.839,18.378h50.535v10.163h-38.285v31.185h35.363V69.75h-35.363v42.462h-12.25V18.378z"/>
	<path fill="#FFFFFF" d="M1009.955,28.68h-28.539V18.378h69.469V28.68h-28.678v83.531h-12.252V28.68L1009.955,28.68z"/>
	<path fill="#FFFFFF" d="M1067.312,97.455c5.434,3.48,13.23,6.125,21.58,6.125c12.391,0,19.631-6.543,19.631-16.01
		c0-8.632-5.014-13.783-17.682-18.516c-15.312-5.569-24.781-13.644-24.781-26.73c0-14.617,12.113-25.477,30.352-25.477
		c9.467,0,16.564,2.228,20.604,4.595l-3.342,9.883c-2.924-1.81-9.188-4.456-17.682-4.456c-12.807,0-17.682,7.658-17.682,14.062
		c0,8.771,5.709,13.087,18.656,18.099c15.871,6.125,23.805,13.783,23.805,27.565c0,14.478-10.578,27.148-32.715,27.148
		c-9.049,0-18.932-2.785-23.945-6.126L1067.312,97.455z"/>
</g>
<polygon fill="#F57F20" points="643.285,374.593 525.738,313.235 525.738,435.951 "/>
<polygon fill="#93C83E" points="643.285,374.593 760.828,313.235 760.828,435.951 "/>
<path fill="#FFFFFF" d="M643.693,137.619c-66.311,0-119.358,49.202-119.358,118.353c0,12.537,1.745,24.386,4.957,35.406
	l56.231,28.426c-11.094-15.149-17.783-34.682-17.783-56.014c0-48.14,34.025-87.165,76-87.165s76.002,39.025,76.002,87.165
	c0,20.984-6.473,40.235-17.242,55.279l56.219-28.421c3.08-10.813,4.756-22.415,4.756-34.677
	C763.476,186.82,710.427,137.619,643.693,137.619z"/>
</svg>
