<?xml version="1.0" encoding="utf-8"?>
<!-- Generator: Adobe Illustrator 16.0.0, SVG Export Plug-In . SVG Version: 6.00 Build 0)  -->
<!DOCTYPE svg PUBLIC "-//W3C//DTD SVG 1.1//EN" "http://www.w3.org/Graphics/SVG/1.1/DTD/svg11.dtd">
<svg version="1.1" id="Layer_1" xmlns="http://www.w3.org/2000/svg" xmlns:xlink="http://www.w3.org/1999/xlink" x="0px" y="0px"
	 width="1126.374px" height="448.351px" viewBox="0 0 1126.374 448.351" enable-background="new 0 0 1126.374 448.351"
	 xml:space="preserve">
<g>
	<path d="M132.642,229.604h6.351v-1.772c0-32.358-11.509-44.327-37.309-44.327c-9.129,0-26.988,2.659-26.988,15.071v11.968H27.862
		v-23.937c0-42.11,53.184-46.542,74.22-46.542c67.472,0,87.317,39.45,87.317,89.984v84.218c0,6.208,3.175,9.753,8.732,9.753h15.875
		v47.429h-45.247c-18.654,0-25.798-11.523-25.798-24.823c0-5.763,0.397-9.751,0.397-9.751h-0.793c0,0-15.48,39.893-61.123,39.893
		c-36.118,0-69.06-25.265-69.06-70.479C12.382,235.368,99.7,229.604,132.642,229.604z M93.747,332.885
		c26.989,0,46.04-31.915,46.04-59.397v-5.318h-8.731c-26.196,0-67.87,3.987-67.87,35.46
		C63.185,318.702,73.108,332.885,93.747,332.885z"/>
</g>
<path d="M332.164,371.45h-50.009v-89.54c0-13.299-1.588-25.709-4.366-36.792c-9.128-33.688-33.736-47.429-55.169-47.429
	c-7.144,0-12.303,0.887-12.303,0.887v-55.409c0,0,4.762-0.886,9.128-0.886c30.958,0,55.168,25.709,64.296,58.067h0.794
	c0,0-0.794-5.762-0.794-14.185v-13.298c0-19.06,9.128-27.482,26.989-27.482h46.04v47.872h-15.875c-5.557,0-8.732,3.104-8.732,9.752
	V371.45z"/>
<path d="M408.167,203.008c0-6.648-3.175-9.752-8.732-9.752H383.56v-47.872h46.04c17.861,0,26.99,8.422,26.99,27.482v13.298
	c0,8.423-0.794,14.185-0.794,14.185h0.794c9.128-32.358,33.338-58.067,64.296-58.067c4.367,0,9.129,0.886,9.129,0.886v55.409
	c0,0-5.16-0.887-12.303-0.887c-21.433,0-46.041,13.741-55.169,47.429c-2.778,11.082-4.365,23.493-4.365,36.792v89.54h-50.01V203.008
	z"/>
<path d="M774.897,201.236c-2.196-6.648-5.708-7.979-12.291-7.979h-6.146v-47.872h38.187c18.434,0,27.213,5.762,31.602,23.05
	l32.921,125.444c3.07,11.968,4.39,23.937,4.39,23.937h0.877c0,0,1.753-11.968,5.266-23.937l41.263-147.608h49.158l41.697,147.608
	c3.512,11.968,4.826,23.937,4.826,23.937h0.882c0,0,1.314-11.968,4.39-23.937l32.479-125.444
	c4.389-17.288,13.167-23.05,31.604-23.05h38.185v47.872h-6.143c-6.585,0-9.658,1.331-12.29,7.979l-53.551,170.214h-62.765
	l-38.189-128.99c-3.51-11.968-5.266-24.379-5.266-24.379h-0.877c0,0-2.195,12.411-5.706,24.379l-37.747,128.99h-63.206
	L774.897,201.236z"/>
<g>
	<path d="M742.927,18.378h12.251v83.67h40.096v10.163h-52.347V18.378z"/>
	<path d="M891.893,64.32c0,32.16-19.629,49.423-43.575,49.423c-24.921,0-42.182-19.352-42.182-47.752
		c0-29.792,18.376-49.283,43.434-49.283C875.328,16.708,891.893,36.337,891.893,64.32z M818.943,65.713
		c0,20.187,10.86,38.145,30.07,38.145c19.213,0,30.072-17.68,30.072-38.981c0-18.793-9.746-38.285-29.931-38.285
		C828.966,26.592,818.943,45.247,818.943,65.713z"/>
	<path d="M915.839,18.378h50.535v10.163h-38.285v31.185h35.363V69.75h-35.363v42.462h-12.25V18.378z"/>
	<path d="M1009.954,28.68h-28.538V18.378h69.469V28.68h-28.678v83.531h-12.253V28.68z"/>
	<path d="M1067.313,97.455c5.432,3.48,13.229,6.125,21.579,6.125c12.391,0,19.631-6.543,19.631-16.01
		c0-8.632-5.014-13.783-17.682-18.516c-15.313-5.569-24.78-13.644-24.78-26.73c0-14.617,12.112-25.477,30.35-25.477
		c9.467,0,16.565,2.228,20.604,4.595l-3.341,9.883c-2.925-1.81-9.189-4.456-17.682-4.456c-12.807,0-17.681,7.658-17.681,14.062
		c0,8.771,5.708,13.087,18.656,18.099c15.87,6.125,23.805,13.783,23.805,27.565c0,14.478-10.58,27.148-32.715,27.148
		c-9.049,0-18.933-2.785-23.946-6.126L1067.313,97.455z"/>
</g>
<polygon fill="#F57F20" points="643.284,374.594 525.738,313.235 525.738,435.951 "/>
<polygon fill="#93C83E" points="643.284,374.594 760.827,313.235 760.827,435.951 "/>
<path d="M643.692,137.619c-66.31,0-119.357,49.202-119.357,118.353c0,12.537,1.745,24.386,4.957,35.406l56.231,28.426
	c-11.094-15.149-17.784-34.682-17.784-56.014c0-48.139,34.027-87.164,76.001-87.164c41.974,0,76.001,39.025,76.001,87.164
	c0,20.985-6.471,40.236-17.242,55.28l56.219-28.421c3.08-10.814,4.757-22.415,4.757-34.677
	C763.476,186.82,710.427,137.619,643.692,137.619z"/>
</svg>
